<svg width="24" height="24" viewBox="0 0 24 24" fill="none" xmlns="http://www.w3.org/2000/svg">
<path d="M21.6877 8.84004C20.7588 7.08562 18.9414 5.99331 16.9649 6.00003H2.01102C1.91004 6.00045 1.8114 6.03114 1.72741 6.08827C1.64342 6.14541 1.57778 6.22646 1.53868 6.32134C1.50016 6.41561 1.49012 6.51945 1.50987 6.61956C1.52961 6.71968 1.57824 6.81151 1.64951 6.88329L4.90707 10.177C5.1947 10.4688 5.58655 10.6321 5.99424 10.6321H16.5361C17.2875 10.624 17.9017 11.2304 17.9096 11.9852C17.9175 12.7401 17.3152 13.3585 16.5638 13.3659H9.296C9.19494 13.366 9.09612 13.3963 9.01189 13.4532C8.92766 13.5101 8.86173 13.591 8.82234 13.6859C8.78344 13.7802 8.77315 13.8843 8.79278 13.9847C8.81242 14.0851 8.86108 14.1772 8.93251 14.2492L12.192 17.5456C12.4815 17.8372 12.8722 18.0005 13.2792 18H16.5665C20.8432 18 24.0771 13.4022 21.6877 8.83802" fill="#FFECB8"/>
</svg>
