<svg width="98" height="24" viewBox="0 0 98 24" fill="none" xmlns="http://www.w3.org/2000/svg">
<g clip-path="url(#clip0_35_276)">
<path d="M73.3416 13.7749C73.3416 11.8286 71.7765 10.2994 69.8016 10.2994C67.8547 10.2994 66.2617 11.8286 66.2617 13.7749C66.2617 15.7212 67.8547 17.2504 69.8016 17.2504C71.7765 17.2504 73.3416 15.7212 73.3416 13.7749ZM76.2294 8.08433V19.4748H73.2857V18.446C72.2609 19.2894 70.9661 19.7621 69.5594 19.7621C66.0754 19.7621 63.3552 17.1022 63.3552 13.7749C63.3552 10.457 66.0847 7.78775 69.5594 7.78775C70.9661 7.78775 72.2609 8.26042 73.2857 9.10382V8.08433H76.2294ZM86.0108 16.889H83.7936C83.1229 16.889 82.6851 16.6017 82.6851 15.99V10.6609H86.0014V8.08433H82.6851V4.84051H79.7134V8.08433H77.4777V10.6701H79.7134V16.7222C79.7134 18.2514 80.822 19.4655 82.8155 19.4655H86.0014V16.889H86.0108ZM92.718 19.7621C96.1182 19.7621 98.0372 18.1773 98.0372 15.99C98.0372 14.433 96.9007 13.2744 94.5252 12.774L92.01 12.2735C90.5568 12.014 90.091 11.7452 90.091 11.2169C90.091 10.5311 90.7897 10.114 92.0845 10.114C93.4912 10.114 94.5159 10.4848 94.814 11.7452H97.7577C97.5994 9.37259 95.8387 7.78775 92.2802 7.78775C89.206 7.78775 87.0448 9.02967 87.0448 11.4301C87.0448 13.0891 88.2372 14.1734 90.799 14.7017L93.603 15.332C94.7115 15.5451 95.0096 15.8324 95.0096 16.2773C95.0096 16.9909 94.1712 17.4358 92.8205 17.4358C91.125 17.4358 90.1469 17.0651 89.7743 15.8046H86.8026C87.2404 18.1773 89.0476 19.7621 92.718 19.7621ZM51.4779 4.04346H62.5727V6.67559H54.4775V10.4477H62.3585V13.0057H54.4775V16.8241H62.5727V19.4562H51.4779V4.04346Z" fill="#FFECB8"/>
<path d="M46.2053 10.2067V8.13994H45.4134C44.1558 8.13994 43.2243 8.71456 42.6653 9.61356V8.22335H40.411V19.447H42.684V13.0705C42.684 11.3282 43.7646 10.2067 45.2551 10.2067H46.2053ZM29.8471 12.8018C30.257 11.0872 31.673 9.93794 33.3591 9.93794C35.0452 9.93794 36.4705 11.0779 36.8524 12.8018H29.8471ZM33.4057 8.01019C30.052 8.01019 27.4996 10.6701 27.4996 13.8398C27.4996 17.1856 30.1545 19.6972 33.6106 19.6972C35.7066 19.6972 37.4207 18.7982 38.5665 17.2968L36.9176 16.1105C36.0606 17.2319 34.9334 17.7602 33.6013 17.7602C31.6636 17.7602 30.1079 16.3978 29.7912 14.572H39.1441V13.8491C39.1534 10.494 36.722 8.01019 33.4057 8.01019ZM20.4011 17.7602C18.1933 17.7602 16.4326 16.0178 16.4326 13.8676C16.4326 11.6896 18.2119 9.97502 20.4011 9.97502C22.5623 9.97502 24.3416 11.6896 24.3416 13.8676C24.3509 16.0178 22.5716 17.7602 20.4011 17.7602ZM14.2062 19.4562H16.4606V18.0475C17.4946 19.0855 18.9665 19.7157 20.5595 19.7157C23.941 19.7157 26.596 17.0929 26.596 13.8583C26.596 10.6052 23.941 7.98238 20.5595 7.98238C18.9572 7.98238 17.5133 8.62188 16.4792 9.65063V4.04346H14.2062V19.4562ZM6.20413 17.649C8.39329 17.649 10.0794 15.9993 10.0794 13.5525V4.04346H12.4456V19.447H10.098V18.0197C9.03607 19.0948 7.57352 19.7157 5.92466 19.7157C2.5431 19.7157 -0.0466309 17.3153 -0.0466309 13.6822V4.04346H2.32884V13.5525C2.32884 16.0456 3.99634 17.649 6.20413 17.649Z" fill="#FFECB8"/>
</g>
<defs>
<clipPath id="clip0_35_276">
<rect width="98" height="24" fill="white"/>
</clipPath>
</defs>
</svg>
