<svg width="24" height="24" viewBox="0 0 24 24" fill="none" xmlns="http://www.w3.org/2000/svg">
<path d="M17.9886 8.4032C17.957 8.36057 17.9255 8.30728 17.9255 8.254C17.7677 6.42096 17.5047 5.19538 17.5047 5.19538C17.4627 4.98224 17.2838 4.83304 17.084 4.80107L15.6325 4.61989C15.622 4.61989 15.6114 4.61989 15.5904 4.61989C15.4221 4.61989 15.2854 4.75844 15.2854 4.92895V5.4405C15.2854 5.45115 15.2748 5.46181 15.2643 5.46181H15.2538C14.3913 4.67318 13.4131 3.90586 12.3297 3.2238C12.1194 3.08526 11.8774 3 11.6145 3C11.3515 3 11.0991 3.08526 10.8992 3.2238C5.90305 6.34636 3.14726 11.4405 3.04207 11.7176C3.01052 11.7815 3 11.8561 3 11.9307C3 12.1652 3.15777 12.3677 3.37866 12.421L4.81966 12.698C5.00899 12.7513 5.15625 12.9218 5.17729 13.1243C5.1878 13.3801 5.46128 19.135 5.80838 20.627C5.86098 20.8401 6.06082 21 6.29223 21H6.30274C7.14421 20.9787 7.91204 20.968 8.74299 20.9574H8.75351C8.77454 20.9574 8.79558 20.9574 8.81662 20.9574C8.90076 20.9574 8.97439 20.8828 8.97439 20.7975C8.94284 20.2966 8.86921 19.1457 8.8061 17.9414C8.8061 17.9094 8.8061 17.8774 8.79558 17.8455C8.78506 17.7389 8.73247 17.6536 8.64832 17.6004C8.21707 17.3339 7.92256 16.865 7.89101 16.3322C7.81738 14.3179 7.7753 11.984 7.89101 10.1616C7.90152 10.0124 8.02774 9.88455 8.175 9.88455C8.33277 9.88455 8.46951 10.0124 8.46951 10.1723C8.46951 10.1829 8.46951 10.1829 8.46951 10.1936C8.39588 11.4085 8.39588 12.8472 8.41692 14.2647C8.41692 14.4565 8.5747 14.6057 8.76402 14.6057C8.95335 14.6057 9.10061 14.4458 9.10061 14.254C9.07957 12.8259 9.07957 11.3766 9.1532 10.1616C9.16372 10.0124 9.28994 9.88455 9.4372 9.88455C9.59497 9.88455 9.73171 10.0124 9.73171 10.1723C9.73171 10.1829 9.73171 10.1829 9.73171 10.1936C9.65808 11.4085 9.65808 12.8366 9.67912 14.2433C9.67912 14.4352 9.83689 14.5844 10.0262 14.5844C10.2155 14.5844 10.3628 14.4245 10.3628 14.2327C10.3418 12.8153 10.3418 11.3659 10.4154 10.151C10.4259 10.0018 10.5521 9.87389 10.6994 9.87389C10.8572 9.87389 10.9939 10.0018 10.9939 10.1616C10.9939 10.1723 10.9939 10.1723 10.9939 10.1829C10.8887 11.952 10.9203 14.2007 10.9939 16.1723V16.1936C10.9939 16.2043 10.9939 16.2149 10.9939 16.2256C10.9939 16.2362 10.9939 16.2362 10.9939 16.2469C10.9939 16.7904 10.7309 17.2593 10.3207 17.5471C10.2471 17.6004 10.1945 17.675 10.1945 17.7709C10.1945 17.7709 10.163 18.0693 10.2892 19.54C10.3523 20.1794 10.3944 20.627 10.4154 20.8188C10.4259 20.8934 10.489 20.9574 10.5627 20.9574C10.6047 20.9574 10.6573 20.9574 10.6994 20.9574C10.9729 20.9574 11.2674 20.9574 11.5619 20.9574H11.6145H11.6671C12.0457 20.9574 12.4034 20.9574 12.7505 20.9574L13.5709 20.968C13.6445 20.968 13.7076 20.9041 13.7287 20.8295C13.918 19.071 13.9601 18.0906 13.9601 18.0906C13.9601 18.0053 13.897 17.9307 13.8023 17.9201L12.8136 17.7602C12.6558 17.7282 12.5611 17.6323 12.5296 17.5151C12.5085 17.4405 12.5191 17.3552 12.5191 17.3552C12.9187 11.5044 14.8226 9.5222 14.8226 9.5222C14.8752 9.46892 14.9172 9.43694 14.9172 9.43694C14.9698 9.40497 15.0329 9.373 15.096 9.373C15.2223 9.373 15.338 9.45826 15.38 9.56483C15.38 9.56483 15.3905 9.60746 15.4011 9.70337C15.5694 11.5471 15.4852 14.6803 15.38 17.1208C15.2959 19.1989 15.1907 20.8188 15.1907 20.8188C15.1907 20.8828 15.2433 20.9361 15.3064 20.9361C15.8428 20.9467 16.3793 20.9574 16.9473 20.968H16.9578C17.1892 20.968 17.3785 20.8082 17.4416 20.595C17.7887 19.103 18.0517 13.3481 18.0727 13.0924C18.0938 12.8899 18.241 12.7194 18.4303 12.6661L19.8713 12.389C20.0817 12.3357 20.25 12.1332 20.25 11.8988C20.25 11.8242 20.229 11.7496 20.2079 11.6856C20.1343 11.5684 19.3875 10.1616 17.9886 8.4032Z" fill="#FFECB8"/>
</svg>
